<svg viewBox="0 0 315 72" xmlns="http://www.w3.org/2000/svg">
<path d="M302.413 61.96C300.506 61.96 298.808 61.5613 297.317 60.764C295.826 59.932 294.648 58.8053 293.781 57.384C292.949 55.9627 292.533 54.3507 292.533 52.548V45.372C292.533 43.5693 292.966 41.9573 293.833 40.536C294.7 39.1147 295.878 38.0053 297.369 37.208C298.86 36.376 300.541 35.96 302.413 35.96C304.666 35.96 306.694 36.5493 308.497 37.728C310.334 38.872 311.773 40.432 312.813 42.408C313.888 44.3493 314.425 46.5507 314.425 49.012C314.425 51.4387 313.888 53.64 312.813 55.616C311.773 57.5573 310.334 59.1 308.497 60.244C306.694 61.388 304.666 61.96 302.413 61.96ZM301.477 56.552C302.864 56.552 304.077 56.24 305.117 55.616C306.192 54.9573 307.024 54.056 307.613 52.912C308.237 51.768 308.549 50.4507 308.549 48.96C308.549 47.4693 308.237 46.152 307.613 45.008C307.024 43.864 306.192 42.98 305.117 42.356C304.077 41.6973 302.864 41.368 301.477 41.368C300.09 41.368 298.86 41.6973 297.785 42.356C296.71 42.98 295.878 43.864 295.289 45.008C294.7 46.152 294.405 47.4693 294.405 48.96C294.405 50.4507 294.7 51.768 295.289 52.912C295.878 54.056 296.71 54.9573 297.785 55.616C298.86 56.24 300.09 56.552 301.477 56.552ZM289.049 71.84V36.48H294.769V43.188L293.781 49.272L294.769 55.304V71.84H289.049Z" fill="white"/>
<path d="M267.873 61.44V36.48H273.593V61.44H267.873ZM273.593 47.556L271.617 46.568C271.617 43.4133 272.311 40.8653 273.697 38.924C275.119 36.948 277.251 35.96 280.093 35.96C281.341 35.96 282.468 36.1853 283.473 36.636C284.479 37.0867 285.415 37.8147 286.281 38.82L282.537 42.668C282.087 42.1827 281.584 41.836 281.029 41.628C280.475 41.42 279.833 41.316 279.105 41.316C277.511 41.316 276.193 41.8187 275.153 42.824C274.113 43.8293 273.593 45.4067 273.593 47.556Z" fill="white"/>
<path d="M250.012 61.96C247.586 61.96 245.384 61.388 243.408 60.244C241.432 59.0653 239.855 57.488 238.676 55.512C237.532 53.536 236.96 51.3347 236.96 48.908C236.96 46.4813 237.532 44.2973 238.676 42.356C239.855 40.4147 241.432 38.872 243.408 37.728C245.384 36.5493 247.586 35.96 250.012 35.96C252.474 35.96 254.692 36.532 256.668 37.676C258.644 38.82 260.204 40.38 261.348 42.356C262.527 44.2973 263.116 46.4813 263.116 48.908C263.116 51.3347 262.527 53.536 261.348 55.512C260.204 57.488 258.644 59.0653 256.668 60.244C254.692 61.388 252.474 61.96 250.012 61.96ZM250.012 56.448C251.434 56.448 252.682 56.136 253.756 55.512C254.866 54.8533 255.715 53.952 256.304 52.808C256.928 51.664 257.24 50.364 257.24 48.908C257.24 47.452 256.928 46.1693 256.304 45.06C255.68 43.9507 254.831 43.084 253.756 42.46C252.682 41.8013 251.434 41.472 250.012 41.472C248.626 41.472 247.378 41.8013 246.268 42.46C245.194 43.084 244.344 43.9507 243.72 45.06C243.131 46.1693 242.836 47.452 242.836 48.908C242.836 50.364 243.131 51.664 243.72 52.808C244.344 53.952 245.194 54.8533 246.268 55.512C247.378 56.136 248.626 56.448 250.012 56.448Z" fill="white"/>
<path d="M221.154 61.96C218.519 61.96 216.075 61.492 213.822 60.556C211.603 59.5853 209.662 58.2507 207.998 56.552C206.334 54.8187 205.051 52.8253 204.15 50.572C203.249 48.284 202.798 45.84 202.798 43.24C202.798 40.64 203.249 38.2133 204.15 35.96C205.051 33.672 206.334 31.6787 207.998 29.98C209.662 28.2813 211.603 26.9467 213.822 25.976C216.075 25.0053 218.519 24.52 221.154 24.52C224.101 24.52 226.649 25.0053 228.798 25.976C230.947 26.9467 232.854 28.264 234.518 29.928L230.462 33.984C229.387 32.8053 228.07 31.8867 226.51 31.228C224.985 30.5693 223.199 30.24 221.154 30.24C219.351 30.24 217.705 30.552 216.214 31.176C214.723 31.8 213.423 32.7013 212.314 33.88C211.239 35.024 210.407 36.3933 209.818 37.988C209.229 39.5827 208.934 41.3333 208.934 43.24C208.934 45.1467 209.229 46.8973 209.818 48.492C210.407 50.0867 211.239 51.4733 212.314 52.652C213.423 53.796 214.723 54.68 216.214 55.304C217.705 55.928 219.351 56.24 221.154 56.24C223.373 56.24 225.245 55.9107 226.77 55.252C228.33 54.5587 229.647 53.6227 230.722 52.444L234.778 56.5C233.114 58.1987 231.155 59.5333 228.902 60.504C226.649 61.4747 224.066 61.96 221.154 61.96Z" fill="white"/>
<path d="M181.895 61.44V47.036C181.895 45.372 181.358 44.0027 180.283 42.928C179.243 41.8533 177.891 41.316 176.227 41.316C175.118 41.316 174.13 41.5587 173.263 42.044C172.397 42.5293 171.721 43.2053 171.235 44.072C170.75 44.9387 170.507 45.9267 170.507 47.036L168.271 45.788C168.271 43.8813 168.687 42.2 169.519 40.744C170.351 39.2533 171.495 38.092 172.951 37.26C174.442 36.3933 176.106 35.96 177.943 35.96C179.815 35.96 181.479 36.376 182.935 37.208C184.391 38.04 185.535 39.2013 186.367 40.692C187.199 42.148 187.615 43.8467 187.615 45.788V61.44H181.895ZM164.787 61.44V24H170.507V61.44H164.787Z" fill="white"/>
<path d="M150.939 61.96C148.478 61.96 146.242 61.388 144.231 60.244C142.255 59.1 140.695 57.54 139.551 55.564C138.407 53.588 137.835 51.3867 137.835 48.96C137.835 46.4987 138.407 44.2973 139.551 42.356C140.695 40.38 142.255 38.82 144.231 37.676C146.242 36.532 148.478 35.96 150.939 35.96C152.881 35.96 154.683 36.3413 156.347 37.104C158.046 37.832 159.485 38.8893 160.663 40.276L156.919 44.072C156.191 43.2053 155.307 42.564 154.267 42.148C153.262 41.6973 152.153 41.472 150.939 41.472C149.518 41.472 148.253 41.8013 147.143 42.46C146.069 43.084 145.219 43.9507 144.595 45.06C144.006 46.1693 143.711 47.4693 143.711 48.96C143.711 50.416 144.006 51.716 144.595 52.86C145.219 53.9693 146.069 54.8533 147.143 55.512C148.253 56.136 149.518 56.448 150.939 56.448C152.153 56.448 153.262 56.24 154.267 55.824C155.307 55.3733 156.191 54.7147 156.919 53.848L160.663 57.644C159.485 59.0307 158.046 60.1053 156.347 60.868C154.683 61.596 152.881 61.96 150.939 61.96Z" fill="white"/>
<path d="M123.266 61.96C120.77 61.96 118.517 61.4053 116.506 60.296C114.53 59.152 112.953 57.592 111.774 55.616C110.63 53.64 110.058 51.4213 110.058 48.96C110.058 46.4987 110.63 44.2973 111.774 42.356C112.918 40.38 114.461 38.82 116.402 37.676C118.378 36.532 120.562 35.96 122.954 35.96C125.277 35.96 127.322 36.4973 129.09 37.572C130.893 38.6467 132.297 40.12 133.302 41.992C134.342 43.864 134.862 45.996 134.862 48.388C134.862 48.804 134.827 49.2373 134.758 49.688C134.723 50.104 134.654 50.572 134.55 51.092H114.062V46.412H131.586L129.454 48.284C129.385 46.7587 129.09 45.476 128.57 44.436C128.05 43.396 127.305 42.5987 126.334 42.044C125.398 41.4893 124.237 41.212 122.85 41.212C121.394 41.212 120.129 41.524 119.054 42.148C117.979 42.772 117.147 43.656 116.558 44.8C115.969 45.9093 115.674 47.244 115.674 48.804C115.674 50.364 115.986 51.7333 116.61 52.912C117.234 54.0907 118.118 55.0093 119.262 55.668C120.406 56.292 121.723 56.604 123.214 56.604C124.497 56.604 125.675 56.3787 126.75 55.928C127.859 55.4773 128.795 54.8187 129.558 53.952L133.198 57.644C131.985 59.0653 130.511 60.14 128.778 60.868C127.045 61.596 125.207 61.96 123.266 61.96Z" fill="white"/>
<path d="M95.856 61.44V26.08H101.836V61.44H95.856ZM84 30.5V25.04H113.692V30.5H84Z" fill="white"/>
<rect x="24" width="19" height="19" rx="9.5" fill="#F20687"/>
<rect x="31" y="4" width="6" height="68" rx="3" fill="#F20687"/>
<rect x="48" y="19" width="19" height="19" rx="9.5" fill="#077EE7"/>
<rect y="19" width="20" height="19" rx="9.5" fill="#077EE7"/>
</svg>