<svg viewBox="0 0 104 39" fill="none" xmlns="http://www.w3.org/2000/svg">
<path d="M98.1433 38V23.596C98.1433 21.932 97.6059 20.5627 96.5313 19.488C95.4913 18.4133 94.1393 17.876 92.4753 17.876C91.3659 17.876 90.378 18.1187 89.5113 18.604C88.6446 19.0893 87.9686 19.7653 87.4833 20.632C86.998 21.4987 86.7553 22.4867 86.7553 23.596L84.5193 22.348C84.5193 20.4413 84.9353 18.76 85.7673 17.304C86.5993 15.8133 87.7433 14.652 89.1993 13.82C90.6899 12.9533 92.354 12.52 94.1913 12.52C96.0633 12.52 97.7273 12.936 99.1833 13.768C100.639 14.6 101.783 15.7613 102.615 17.252C103.447 18.708 103.863 20.4067 103.863 22.348V38H98.1433ZM81.0353 38V0.559998H86.7553V38H81.0353Z" fill="#1F3141"/>
<path d="M67.1874 38.52C64.7261 38.52 62.4901 37.948 60.4794 36.804C58.5034 35.66 56.9434 34.1 55.7994 32.124C54.6554 30.148 54.0834 27.9467 54.0834 25.52C54.0834 23.0587 54.6554 20.8573 55.7994 18.916C56.9434 16.94 58.5034 15.38 60.4794 14.236C62.4901 13.092 64.7261 12.52 67.1874 12.52C69.1288 12.52 70.9314 12.9013 72.5954 13.664C74.2941 14.392 75.7328 15.4493 76.9114 16.836L73.1674 20.632C72.4394 19.7653 71.5554 19.124 70.5154 18.708C69.5101 18.2573 68.4008 18.032 67.1874 18.032C65.7661 18.032 64.5008 18.3613 63.3914 19.02C62.3168 19.644 61.4674 20.5107 60.8434 21.62C60.2541 22.7293 59.9594 24.0293 59.9594 25.52C59.9594 26.976 60.2541 28.276 60.8434 29.42C61.4674 30.5293 62.3168 31.4133 63.3914 32.072C64.5008 32.696 65.7661 33.008 67.1874 33.008C68.4008 33.008 69.5101 32.8 70.5154 32.384C71.5554 31.9333 72.4394 31.2747 73.1674 30.408L76.9114 34.204C75.7328 35.5907 74.2941 36.6653 72.5954 37.428C70.9314 38.156 69.1288 38.52 67.1874 38.52Z" fill="#1F3141"/>
<path d="M39.5141 38.52C37.0181 38.52 34.7648 37.9653 32.7541 36.856C30.7781 35.712 29.2008 34.152 28.0221 32.176C26.8781 30.2 26.3061 27.9813 26.3061 25.52C26.3061 23.0587 26.8781 20.8573 28.0221 18.916C29.1661 16.94 30.7088 15.38 32.6501 14.236C34.6261 13.092 36.8101 12.52 39.2021 12.52C41.5248 12.52 43.5701 13.0573 45.3381 14.132C47.1408 15.2067 48.5448 16.68 49.5501 18.552C50.5901 20.424 51.1101 22.556 51.1101 24.948C51.1101 25.364 51.0754 25.7973 51.0061 26.248C50.9714 26.664 50.9021 27.132 50.7981 27.652H30.3101V22.972H47.8341L45.7021 24.844C45.6328 23.3187 45.3381 22.036 44.8181 20.996C44.2981 19.956 43.5528 19.1587 42.5821 18.604C41.6461 18.0493 40.4848 17.772 39.0981 17.772C37.6421 17.772 36.3768 18.084 35.3021 18.708C34.2274 19.332 33.3954 20.216 32.8061 21.36C32.2168 22.4693 31.9221 23.804 31.9221 25.364C31.9221 26.924 32.2341 28.2933 32.8581 29.472C33.4821 30.6507 34.3661 31.5693 35.5101 32.228C36.6541 32.852 37.9714 33.164 39.4621 33.164C40.7448 33.164 41.9234 32.9387 42.9981 32.488C44.1074 32.0373 45.0434 31.3787 45.8061 30.512L49.4461 34.204C48.2328 35.6253 46.7594 36.7 45.0261 37.428C43.2928 38.156 41.4554 38.52 39.5141 38.52Z" fill="#1F3141"/>
<path d="M12.104 38V2.64H18.084V38H12.104ZM0.247986 7.06V1.6H29.94V7.06H0.247986Z" fill="#1F3141"/>
</svg>