<svg viewBox="0 0 2101 287" fill="none" xmlns="http://www.w3.org/2000/svg">
<path d="M813 104C784.281 104 761 80.7188 761 52V52C761 23.2812 784.281 1.84337e-06 813 5.88031e-07V5.88031e-07C841.719 -6.67308e-07 865 23.2812 865 52V52C865 80.7188 841.719 104 813 104V104Z" fill="#077EE7"/>
<path d="M1079 183C1107.72 183 1131 206.281 1131 235V235C1131 263.719 1107.72 287 1079 287V287C1050.28 287 1027 263.719 1027 235V235C1027 206.281 1050.28 183 1079 183V183Z" fill="#F20687"/>
<path d="M842 59L842 45.0001L2101 45L2101 58.9999L842 59Z" fill="#077EE7"/>
<path d="M1050 228L1050 242L-4.42666e-06 242L-3.8147e-06 228L1050 228Z" fill="#F20687"/>
</svg>