<svg viewBox="0 0 112 48" fill="none" xmlns="http://www.w3.org/2000/svg">
<path d="M99.7469 37.52C97.8403 37.52 96.1416 37.1213 94.6509 36.324C93.1603 35.492 91.9816 34.3653 91.1149 32.944C90.2829 31.5227 89.8669 29.9107 89.8669 28.108V20.932C89.8669 19.1293 90.3003 17.5173 91.1669 16.096C92.0336 14.6747 93.2123 13.5653 94.7029 12.768C96.1936 11.936 97.8749 11.52 99.7469 11.52C102 11.52 104.028 12.1093 105.831 13.288C107.668 14.432 109.107 15.992 110.147 17.968C111.222 19.9093 111.759 22.1107 111.759 24.572C111.759 26.9987 111.222 29.2 110.147 31.176C109.107 33.1173 107.668 34.66 105.831 35.804C104.028 36.948 102 37.52 99.7469 37.52ZM98.8109 32.112C100.198 32.112 101.411 31.8 102.451 31.176C103.526 30.5173 104.358 29.616 104.947 28.472C105.571 27.328 105.883 26.0107 105.883 24.52C105.883 23.0293 105.571 21.712 104.947 20.568C104.358 19.424 103.526 18.54 102.451 17.916C101.411 17.2573 100.198 16.928 98.8109 16.928C97.4243 16.928 96.1936 17.2573 95.1189 17.916C94.0443 18.54 93.2123 19.424 92.6229 20.568C92.0336 21.712 91.7389 23.0293 91.7389 24.52C91.7389 26.0107 92.0336 27.328 92.6229 28.472C93.2123 29.616 94.0443 30.5173 95.1189 31.176C96.1936 31.8 97.4243 32.112 98.8109 32.112ZM86.3829 47.4V12.04H92.1029V18.748L91.1149 24.832L92.1029 30.864V47.4H86.3829Z" fill="#1F3141"/>
<path d="M65.2072 37V12.04H70.9272V37H65.2072ZM70.9272 23.116L68.9512 22.128C68.9512 18.9733 69.6445 16.4253 71.0312 14.484C72.4525 12.508 74.5845 11.52 77.4272 11.52C78.6752 11.52 79.8018 11.7453 80.8072 12.196C81.8125 12.6467 82.7485 13.3747 83.6152 14.38L79.8712 18.228C79.4205 17.7427 78.9178 17.396 78.3632 17.188C77.8085 16.98 77.1672 16.876 76.4392 16.876C74.8445 16.876 73.5272 17.3787 72.4872 18.384C71.4472 19.3893 70.9272 20.9667 70.9272 23.116Z" fill="#1F3141"/>
<path d="M47.3464 37.52C44.9197 37.52 42.7184 36.948 40.7424 35.804C38.7664 34.6253 37.189 33.048 36.0104 31.072C34.8664 29.096 34.2944 26.8947 34.2944 24.468C34.2944 22.0413 34.8664 19.8573 36.0104 17.916C37.189 15.9747 38.7664 14.432 40.7424 13.288C42.7184 12.1093 44.9197 11.52 47.3464 11.52C49.8077 11.52 52.0264 12.092 54.0024 13.236C55.9784 14.38 57.5384 15.94 58.6824 17.916C59.861 19.8573 60.4504 22.0413 60.4504 24.468C60.4504 26.8947 59.861 29.096 58.6824 31.072C57.5384 33.048 55.9784 34.6253 54.0024 35.804C52.0264 36.948 49.8077 37.52 47.3464 37.52ZM47.3464 32.008C48.7677 32.008 50.0157 31.696 51.0904 31.072C52.1997 30.4133 53.049 29.512 53.6384 28.368C54.2624 27.224 54.5744 25.924 54.5744 24.468C54.5744 23.012 54.2624 21.7293 53.6384 20.62C53.0144 19.5107 52.165 18.644 51.0904 18.02C50.0157 17.3613 48.7677 17.032 47.3464 17.032C45.9597 17.032 44.7117 17.3613 43.6024 18.02C42.5277 18.644 41.6784 19.5107 41.0544 20.62C40.465 21.7293 40.1704 23.012 40.1704 24.468C40.1704 25.924 40.465 27.224 41.0544 28.368C41.6784 29.512 42.5277 30.4133 43.6024 31.072C44.7117 31.696 45.9597 32.008 47.3464 32.008Z" fill="#1F3141"/>
<path d="M18.488 37.52C15.8534 37.52 13.4094 37.052 11.156 36.116C8.93735 35.1453 6.99602 33.8107 5.33202 32.112C3.66802 30.3787 2.38535 28.3853 1.48402 26.132C0.582686 23.844 0.132019 21.4 0.132019 18.8C0.132019 16.2 0.582686 13.7733 1.48402 11.52C2.38535 9.232 3.66802 7.23867 5.33202 5.54C6.99602 3.84134 8.93735 2.50667 11.156 1.536C13.4094 0.565335 15.8534 0.0800018 18.488 0.0800018C21.4347 0.0800018 23.9827 0.565335 26.132 1.536C28.2814 2.50667 30.188 3.824 31.852 5.488L27.796 9.544C26.7214 8.36534 25.404 7.44667 23.844 6.788C22.3187 6.12934 20.5334 5.8 18.488 5.8C16.6854 5.8 15.0387 6.112 13.548 6.736C12.0574 7.36 10.7574 8.26134 9.64802 9.44C8.57335 10.584 7.74135 11.9533 7.15202 13.548C6.56269 15.1427 6.26802 16.8933 6.26802 18.8C6.26802 20.7067 6.56269 22.4573 7.15202 24.052C7.74135 25.6467 8.57335 27.0333 9.64802 28.212C10.7574 29.356 12.0574 30.24 13.548 30.864C15.0387 31.488 16.6854 31.8 18.488 31.8C20.7067 31.8 22.5787 31.4707 24.104 30.812C25.664 30.1187 26.9814 29.1827 28.056 28.004L32.112 32.06C30.448 33.7587 28.4894 35.0933 26.236 36.064C23.9827 37.0347 21.4 37.52 18.488 37.52Z" fill="#1F3141"/>
</svg>