<svg xmlns="http://www.w3.org/2000/svg" viewBox="0 0 13.12 14.19"><polygon fill="#131e26" points=".17 11.47 .17 14.19 .27 14.19 .27 11.51 2.82 8.96 2.82 4.72 2.07 3.97 2.07 .91 1.97 .91 1.97 4.01 2.72 4.76 2.72 8.92 .17 11.47"/><polygon fill="#131e26" points="7.16 2.38 7.16 .17 7.06 .17 7.06 2.34 5.59 3.81 5.59 8.06 5.68 8.06 5.69 3.85 7.16 2.38"/><path fill="#131e26" d="m12.12,7.45c.11,0,.2-.09.2-.2,0-.11-.09-.2-.2-.2-.11,0-.2.09-.2.2,0,.11.09.2.2.2Z"/><path fill="#131e26" d="m.2,5.53c.11,0,.2-.09.2-.2,0-.11-.09-.2-.2-.2-.11,0-.2.09-.2.2,0,.11.09.2.2.2Z"/><path fill="#131e26" d="m7.11.4c.11,0,.2-.09.2-.2C7.31.09,7.22,0,7.11,0c-.11,0-.2.09-.2.2,0,.11.09.2.2.2Z"/><path fill="#131e26" d="m5.63,8.26c.11,0,.2-.09.2-.2,0-.11-.09-.2-.2-.2-.11,0-.2.09-.2.2,0,.11.09.2.2.2Z"/><path fill="#131e26" d="m1.64,9.08c.11,0,.2-.09.2-.2,0-.11-.09-.2-.2-.2-.11,0-.2.09-.2.2,0,.11.09.2.2.2Z"/><path fill="#131e26" d="m4.01,13.35c.11,0,.2-.09.2-.2,0-.11-.09-.2-.2-.2-.11,0-.2.09-.2.2,0,.11.09.2.2.2Z"/><path fill="#131e26" d="m11.55,3.37c.11,0,.2-.09.2-.2,0-.11-.09-.2-.2-.2-.11,0-.2.09-.2.2,0,.11.09.2.2.2Z"/><path fill="#131e26" d="m10.78,10.39c.11,0,.2-.09.2-.2,0-.11-.09-.2-.2-.2-.11,0-.2.09-.2.2,0,.11.09.2.2.2Z"/><path fill="#131e26" d="m1.98,1.15c.11,0,.2-.09.2-.2,0-.11-.09-.2-.2-.2-.11,0-.2.09-.2.2,0,.11.09.2.2.2Z"/><path fill="#131e26" d="m5.54.66c.15,0,.28-.13.28-.28,0-.16-.13-.28-.28-.28-.16,0-.28.13-.28.28,0,.15.13.28.28.28Z"/><polygon fill="#1f3141" points="11.79 9.19 11.79 14.19 11.88 14.19 11.88 9.15 10.61 7.88 10.61 6.07 10.52 6.07 10.52 7.92 11.79 9.19"/><polygon fill="#131e26" points="1.59 14.19 1.69 14.19 1.69 8.86 .23 7.4 .23 5.33 .13 5.33 .13 7.44 1.59 8.9 1.59 14.19"/><rect fill="#1f3141" x="2.85" y="11.62" width=".17" height="2.58"/><polygon fill="#1f3141" points="6.41 8.32 6.41 6.38 6.32 6.39 6.32 8.28 5.03 9.57 5.03 13.28 5.12 13.28 5.12 9.61 6.41 8.32"/><path fill="#1f3141" d="m.47,13c.1,0,.17-.08.17-.17,0-.1-.08-.17-.17-.17-.1,0-.17.08-.17.18,0,.1.08.17.17.17Z"/><path fill="#1f3141" d="m10.58,6.25c.1,0,.17-.08.17-.17,0-.1-.08-.18-.18-.18s-.17.08-.17.17c0,.1.08.18.17.17Z"/><path fill="#1f3141" d="m1.98,6.25c.1,0,.17-.08.18-.17,0-.1-.08-.17-.17-.17-.1,0-.18.08-.18.18,0,.09.08.17.17.17Z"/><path fill="#1f3141" d="m6.42,6.5c.09,0,.17-.08.17-.17,0-.09-.08-.17-.17-.18-.1,0-.17.08-.17.18,0,.1.08.17.17.17Z"/><path fill="#1f3141" d="m5.08,13.46c.1,0,.18-.08.17-.17,0-.1-.08-.18-.17-.17-.1,0-.17.08-.17.17s.08.17.17.17Z"/><path fill="#1f3141" d="m7.19,6.33c.1,0,.17-.08.17-.17,0-.1-.08-.17-.17-.17-.09,0-.18.08-.17.17,0,.09.08.17.17.17Z"/><path fill="#1f3141" d="m8.57,6.65c.09,0,.17-.08.17-.17,0-.1-.08-.17-.17-.17-.1,0-.17.08-.17.17,0,.09.08.17.17.17Z"/><path fill="#1f3141" d="m11.84,9.35c.1,0,.17-.08.17-.17,0-.1-.08-.17-.17-.17-.1,0-.17.08-.17.17,0,.1.08.18.17.18Z"/><path fill="#1f3141" d="m5.75,10.15c.1,0,.18-.08.17-.17,0-.1-.08-.17-.17-.17-.1,0-.17.08-.17.17s.08.17.17.17Z"/><path fill="#1f3141" d="m8.53,12.82c.1,0,.17-.08.17-.17,0-.09-.08-.17-.17-.17-.09,0-.17.08-.18.17,0,.1.08.18.18.18Z"/><path fill="#1f3141" d="m9.35,2.38c.1,0,.17-.08.17-.17,0-.1-.08-.17-.17-.17-.1,0-.17.08-.17.17,0,.09.08.18.17.17Z"/><path fill="#1f3141" d="m9.38,5.2c.1,0,.17-.08.17-.17,0-.1-.08-.17-.17-.17-.1,0-.17.08-.18.17,0,.1.08.17.18.18Z"/><path fill="#1f3141" d="m7.72,11.43c.09,0,.17-.08.17-.17,0-.1-.08-.17-.17-.17-.09,0-.17.08-.17.17,0,.09.08.17.18.17Z"/><path fill="#1f3141" d="m1.19,11.75c.1,0,.17-.08.17-.17,0-.1-.08-.17-.17-.17-.1,0-.17.08-.17.17,0,.1.08.18.17.17Z"/><path fill="#1f3141" d="m6.18,2.55c.1,0,.17-.08.18-.18,0-.1-.08-.17-.18-.17s-.17.08-.17.17c0,.1.08.17.17.18Z"/><path fill="#1f3141" d="m3.92,4.51c.14,0,.25-.11.25-.25,0-.13-.11-.24-.25-.25-.14,0-.25.11-.25.25s.11.25.25.25Z"/><path fill="#1f3141" d="m2.94,11.82c.14,0,.25-.11.24-.24,0-.14-.11-.25-.25-.25-.13,0-.25.11-.24.25,0,.14.11.25.25.24Z"/><path fill="#1f3141" d="m8.11,11.25c0,.23-.19.41-.41.41-.22,0-.41-.18-.41-.41,0-.23.18-.41.41-.41.23,0,.41.18.41.41Zm-.75,0c0,.19.15.34.34.34.19,0,.34-.15.34-.34,0-.19-.15-.34-.34-.34-.19,0-.34.15-.34.34Z"/><path fill="#1f3141" d="m9.76,2.21c0,.23-.18.41-.41.41s-.41-.18-.41-.41.19-.41.41-.41c.23,0,.41.18.41.41Zm-.75,0c0,.19.15.34.34.34.19,0,.34-.15.34-.34,0-.19-.15-.34-.34-.34-.19,0-.34.15-.34.34Z"/><path fill="#1f3141" d="m10.93,6.07c0,.19-.16.35-.35.35-.19,0-.35-.16-.35-.35,0-.19.16-.35.35-.35.19,0,.35.16.35.35Zm-.64,0c0,.16.13.29.29.29.16,0,.29-.13.29-.29,0-.16-.13-.29-.29-.29-.16,0-.29.13-.29.29Z"/><path fill="#1f3141" d="m4.47,4.25c0,.3-.25.55-.55.55-.3,0-.55-.25-.55-.55,0-.3.25-.55.55-.55.3,0,.55.25.55.55Zm-1.01,0c0,.25.2.46.46.46.25,0,.46-.21.46-.46,0-.25-.21-.46-.46-.46-.25,0-.46.2-.46.46Z"/><polygon fill="#1f3141" points="12.45 10.44 12.45 13.48 13.03 14.06 13.03 14.19 13.12 14.19 13.12 14.02 12.54 13.45 12.54 10.4 8.57 6.43 8.57 3.08 9.37 2.28 9.31 2.22 8.48 3.04 8.48 6.47 12.45 10.44"/><polygon fill="#131e26" points="10.25 14.19 10.24 13.71 10.81 13.14 10.81 10.19 12.17 8.86 12.17 7.25 12.07 7.25 12.07 8.82 10.71 10.15 10.71 13.1 10.15 13.66 10.15 14.19 10.25 14.19"/><polygon fill="#1f3141" points="8.5 8.84 8.5 12.65 10.38 14.12 10.38 14.19 10.47 14.19 10.47 14.08 8.58 12.61 8.58 8.81 7.25 7.48 7.25 6.13 7.16 6.13 7.16 7.51 8.5 8.84"/><polygon fill="#131e26" points="9.63 14.19 9.63 10.45 11.55 8.52 11.55 3.26 11.45 3.26 11.45 8.48 9.53 10.41 9.53 14.19 9.63 14.19"/><polygon fill="#1f3141" points="7.67 14.19 7.76 14.19 7.76 11.28 9.44 9.6 9.44 5 9.35 5 9.35 9.56 7.67 11.24 7.67 14.19"/><polygon fill="#1f3141" points="7 14.09 7.1 14.19 7.23 14.19 7.09 14.05 7.09 12.08 2.04 7.71 2.04 6.1 1.95 6.1 1.95 7.74 7 12.12 7 14.09"/><rect fill="#1f3141" x=".43" y="12.83" width=".09" height="1.37"/><polygon fill="#1f3141" points="6.45 9.98 6.45 14.19 6.63 14.19 6.63 9.91 4.01 7.29 4.01 4.25 3.83 4.25 3.83 7.36 6.45 9.98"/><polygon fill="#131e26" points="6.22 14.19 6.37 14.19 6.37 13.5 3.4 10.53 3.4 8.61 4.83 7.19 4.83 2.51 5.62 1.72 5.62 .59 5.46 .59 5.47 1.66 4.67 2.45 4.67 7.12 3.25 8.55 3.24 10.6 6.22 13.57 6.22 14.19"/><polygon fill="#1f3141" points="4.9 14.19 5.03 14.19 5.75 13.47 5.75 9.98 5.66 9.98 5.66 13.44 4.9 14.19"/><path fill="#1f3141" d="m2.32,10.15c.1,0,.18-.08.17-.17,0-.1-.08-.17-.17-.17-.1,0-.17.08-.17.17s.08.17.17.17Z"/><polygon fill="#1f3141" points="1.47 14.19 1.6 14.19 2.32 13.47 2.32 9.98 2.23 9.98 2.23 13.44 1.47 14.19"/><rect fill="#131e26" x="3.96" y="13.3" width=".1" height=".89"/><path fill="#131e26" d="m11.35,13.35c.11,0,.2-.09.2-.2,0-.11-.09-.2-.2-.2-.11,0-.2.09-.2.2,0,.11.09.2.2.2Z"/><rect fill="#131e26" x="11.31" y="13.3" width=".1" height=".89"/><polygon fill="#1f3141" points="4.57 14.19 4.65 14.19 4.65 11.59 6.88 9.36 6.88 5.66 6.22 5.01 6.22 2.33 6.14 2.33 6.14 5.05 6.79 5.7 6.79 9.33 4.57 11.55 4.57 14.19"/></svg>