<svg viewBox="0 0 676 698" fill="none" xmlns="http://www.w3.org/2000/svg">
<path d="M651.5 427C665.031 427 676 437.969 676 451.5V451.5C676 465.031 665.031 476 651.5 476V476C637.969 476 627 465.031 627 451.5V451.5C627 437.969 637.969 427 651.5 427V427Z" fill="#1F3141"/>
<path d="M380.5 234C394.031 234 405 244.969 405 258.5V258.5C405 272.031 394.031 283 380.5 283V283C366.969 283 356 272.031 356 258.5V258.5C356 244.969 366.969 234 380.5 234V234Z" fill="#1F3141"/>
<path d="M616.5 -1.07093e-06C630.031 -4.79471e-07 641 10.969 641 24.5V24.5C641 38.031 630.031 49 616.5 49V49C602.969 49 592 38.031 592 24.5V24.5C592 10.969 602.969 -1.66239e-06 616.5 -1.07093e-06V-1.07093e-06Z" fill="#1F3141"/>
<path d="M442.5 294C456.031 294 467 304.969 467 318.5V318.5C467 332.031 456.031 343 442.5 343V343C428.969 343 418 332.031 418 318.5V318.5C418 304.969 428.969 294 442.5 294V294Z" fill="#1F3141"/>
<path d="M383.5 588C397.031 588 408 598.969 408 612.5V612.5C408 626.031 397.031 637 383.5 637V637C369.969 637 359 626.031 359 612.5V612.5C359 598.969 369.969 588 383.5 588V588Z" fill="#1F3141"/>
<path d="M505.5 637C522.345 637 536 650.655 536 667.5V667.5C536 684.345 522.345 698 505.5 698L504.5 698C487.655 698 474 684.345 474 667.5V667.5C474 650.655 487.655 637 504.5 637L505.5 637Z" fill="#1F3141"/>
<path d="M465.5 70C482.345 70 496 83.6553 496 100.5V100.5C496 117.345 482.345 131 465.5 131L464.5 131C447.655 131 434 117.345 434 100.5V100.5C434 83.6553 447.655 70 464.5 70L465.5 70Z" fill="#1F3141"/>
<path d="M536.5 330C553.345 330 567 343.655 567 360.5V360.5C567 377.345 553.345 391 536.5 391L535.5 391C518.655 391 505 377.345 505 360.5V360.5C505 343.655 518.655 330 535.5 330L536.5 330Z" fill="#1F3141"/>
<path d="M616 163C628.15 163 638 172.85 638 185V185C638 197.15 628.15 207 616 207V207C603.85 207 594 197.15 594 185V185C594 172.85 603.85 163 616 163V163Z" fill="#1F3141"/>
<path d="M504 488C516.15 488 526 497.85 526 510V510C526 522.15 516.15 532 504 532V532C491.85 532 482 522.15 482 510V510C482 497.85 491.85 488 504 488V488Z" fill="#1F3141"/>
<path d="M601.5 181C603.433 181 605 182.567 605 184.5V184.5C605 186.433 603.433 188 601.5 188L181.5 188C179.567 188 178 186.433 178 184.5V184.5C178 182.567 179.567 181 181.5 181L601.5 181Z" fill="#1F3141"/>
<path d="M608.5 21C610.433 21 612 22.567 612 24.5V24.5C612 26.433 610.433 28 608.5 28L296.5 28C294.567 28 293 26.433 293 24.5V24.5C293 22.567 294.567 21 296.5 21L608.5 21Z" fill="#1F3141"/>
<path d="M434.5 315C436.433 315 438 316.567 438 318.5V318.5C438 320.433 436.433 322 434.5 322L122.5 322C120.567 322 119 320.433 119 318.5V318.5C119 316.567 120.567 315 122.5 315L434.5 315Z" fill="#1F3141"/>
<path d="M469.5 97C471.433 97 473 98.567 473 100.5V100.5C473 102.433 471.433 104 469.5 104L119.5 104C117.567 104 116 102.433 116 100.5V100.5C116 98.567 117.567 97 119.5 97L469.5 97Z" fill="#1F3141"/>
<path d="M387.5 256C389.433 256 391 257.567 391 259.5V259.5C391 261.433 389.433 263 387.5 263L93.5 263C91.567 263 90 261.433 90 259.5V259.5C90 257.567 91.567 256 93.5 256L387.5 256Z" fill="#1F3141"/>
<path d="M379.5 609C381.433 609 383 610.567 383 612.5V612.5C383 614.433 381.433 616 379.5 616L205.5 616C203.567 616 202 614.433 202 612.5V612.5C202 610.567 203.567 609 205.5 609L379.5 609Z" fill="#1F3141"/>
<path d="M535.5 357C537.433 357 539 358.567 539 360.5V360.5C539 362.433 537.433 364 535.5 364L220.5 364C218.567 364 217 362.433 217 360.5V360.5C217 358.567 218.567 357 220.5 357L535.5 357Z" fill="#1F3141"/>
<path d="M508.5 507C510.433 507 512 508.567 512 510.5V510.5C512 512.433 510.433 514 508.5 514L142.5 514C140.567 514 139 512.433 139 510.5V510.5C139 508.567 140.567 507 142.5 507L508.5 507Z" fill="#1F3141"/>
<path d="M648.5 448C650.433 448 652 449.567 652 451.5V451.5C652 453.433 650.433 455 648.5 455L256.5 455C254.567 455 253 453.433 253 451.5V451.5C253 449.567 254.567 448 256.5 448L648.5 448Z" fill="#1F3141"/>
<path d="M492.5 664C494.433 664 496 665.567 496 667.5V667.5C496 669.433 494.433 671 492.5 671L3.50001 671C1.56701 671 -2.37484e-07 669.433 -1.5299e-07 667.5V667.5C-6.84959e-08 665.567 1.567 664 3.5 664L492.5 664Z" fill="#1F3141"/>
</svg>